<?xml version="1.0" encoding="UTF-8"?>
<svg xmlns="http://www.w3.org/2000/svg" xmlns:xlink="http://www.w3.org/1999/xlink" width="304pt" height="187pt" viewBox="0 0 304 187" version="1.2">
<g id="surface1">
<path style=" stroke:none;fill-rule:nonzero;fill:rgb(100%,100%,100%);fill-opacity:1;" d="M 14.382812 171.863281 L 297.265625 171.863281 L 297.265625 6.386719 L 14.382812 6.386719 Z M 14.382812 171.863281 "/>
<path style="fill:none;stroke-width:5.00148;stroke-linecap:butt;stroke-linejoin:round;stroke:rgb(85.15625%,85.15625%,85.15625%);stroke-opacity:1;stroke-miterlimit:10;" d="M 143.798697 -151.356593 L 143.798697 -1806.006392 " transform="matrix(0.0999933,0,0,0.100007,0,187)"/>
<path style="fill:none;stroke-width:5.00148;stroke-linecap:butt;stroke-linejoin:round;stroke:rgb(85.15625%,85.15625%,85.15625%);stroke-opacity:1;stroke-miterlimit:10;" d="M 709.617857 -151.356593 L 709.617857 -1806.006392 " transform="matrix(0.0999933,0,0,0.100007,0,187)"/>
<path style="fill:none;stroke-width:5.00148;stroke-linecap:butt;stroke-linejoin:round;stroke:rgb(85.15625%,85.15625%,85.15625%);stroke-opacity:1;stroke-miterlimit:10;" d="M 1275.437017 -151.356593 L 1275.437017 -1806.006392 " transform="matrix(0.0999933,0,0,0.100007,0,187)"/>
<path style="fill:none;stroke-width:5.00148;stroke-linecap:butt;stroke-linejoin:round;stroke:rgb(85.15625%,85.15625%,85.15625%);stroke-opacity:1;stroke-miterlimit:10;" d="M 1841.256177 -151.356593 L 1841.256177 -1806.006392 " transform="matrix(0.0999933,0,0,0.100007,0,187)"/>
<path style="fill:none;stroke-width:5.00148;stroke-linecap:butt;stroke-linejoin:round;stroke:rgb(85.15625%,85.15625%,85.15625%);stroke-opacity:1;stroke-miterlimit:10;" d="M 2407.036271 -151.356593 L 2407.036271 -1806.006392 " transform="matrix(0.0999933,0,0,0.100007,0,187)"/>
<path style="fill:none;stroke-width:5.00148;stroke-linecap:butt;stroke-linejoin:round;stroke:rgb(85.15625%,85.15625%,85.15625%);stroke-opacity:1;stroke-miterlimit:10;" d="M 2972.855431 -151.356593 L 2972.855431 -1806.006392 " transform="matrix(0.0999933,0,0,0.100007,0,187)"/>
<path style="fill:none;stroke-width:5.00148;stroke-linecap:butt;stroke-linejoin:round;stroke:rgb(85.15625%,85.15625%,85.15625%);stroke-opacity:1;stroke-miterlimit:10;" d="M 2972.855431 -151.356593 L 143.798697 -151.356593 " transform="matrix(0.0999933,0,0,0.100007,0,187)"/>
<path style="fill:none;stroke-width:5.00148;stroke-linecap:butt;stroke-linejoin:round;stroke:rgb(85.15625%,85.15625%,85.15625%);stroke-opacity:1;stroke-miterlimit:10;" d="M 2972.855431 -387.707235 L 143.798697 -387.707235 " transform="matrix(0.0999933,0,0,0.100007,0,187)"/>
<path style="fill:none;stroke-width:5.00148;stroke-linecap:butt;stroke-linejoin:round;stroke:rgb(85.15625%,85.15625%,85.15625%);stroke-opacity:1;stroke-miterlimit:10;" d="M 2972.855431 -624.096938 L 143.798697 -624.096938 " transform="matrix(0.0999933,0,0,0.100007,0,187)"/>
<path style="fill:none;stroke-width:5.00148;stroke-linecap:butt;stroke-linejoin:round;stroke:rgb(85.15625%,85.15625%,85.15625%);stroke-opacity:1;stroke-miterlimit:10;" d="M 2972.855431 -860.486641 L 143.798697 -860.486641 " transform="matrix(0.0999933,0,0,0.100007,0,187)"/>
<path style="fill:none;stroke-width:5.00148;stroke-linecap:butt;stroke-linejoin:round;stroke:rgb(85.15625%,85.15625%,85.15625%);stroke-opacity:1;stroke-miterlimit:10;" d="M 2972.855431 -1096.876344 L 143.798697 -1096.876344 " transform="matrix(0.0999933,0,0,0.100007,0,187)"/>
<path style="fill:none;stroke-width:5.00148;stroke-linecap:butt;stroke-linejoin:round;stroke:rgb(85.15625%,85.15625%,85.15625%);stroke-opacity:1;stroke-miterlimit:10;" d="M 2972.855431 -1333.226987 L 143.798697 -1333.226987 " transform="matrix(0.0999933,0,0,0.100007,0,187)"/>
<path style="fill:none;stroke-width:5.00148;stroke-linecap:butt;stroke-linejoin:round;stroke:rgb(85.15625%,85.15625%,85.15625%);stroke-opacity:1;stroke-miterlimit:10;" d="M 2972.855431 -1569.616689 L 143.798697 -1569.616689 " transform="matrix(0.0999933,0,0,0.100007,0,187)"/>
<path style="fill:none;stroke-width:5.00148;stroke-linecap:butt;stroke-linejoin:round;stroke:rgb(85.15625%,85.15625%,85.15625%);stroke-opacity:1;stroke-miterlimit:10;" d="M 2972.855431 -1806.006392 L 143.798697 -1806.006392 " transform="matrix(0.0999933,0,0,0.100007,0,187)"/>
<path style="fill:none;stroke-width:5.00148;stroke-linecap:square;stroke-linejoin:round;stroke:rgb(0%,0%,1.197815%);stroke-opacity:1;stroke-miterlimit:10;" d="M 143.798697 -151.356593 L 2972.855431 -151.356593 " transform="matrix(0.0999933,0,0,0.100007,0,187)"/>
<path style="fill:none;stroke-width:5.00148;stroke-linecap:square;stroke-linejoin:round;stroke:rgb(0%,0%,1.197815%);stroke-opacity:1;stroke-miterlimit:10;" d="M 143.798697 -1806.006392 L 2972.855431 -1806.006392 " transform="matrix(0.0999933,0,0,0.100007,0,187)"/>
<path style="fill:none;stroke-width:5.00148;stroke-linecap:square;stroke-linejoin:round;stroke:rgb(0%,0%,1.197815%);stroke-opacity:1;stroke-miterlimit:10;" d="M 143.798697 -151.356593 L 143.798697 -179.635863 " transform="matrix(0.0999933,0,0,0.100007,0,187)"/>
<path style="fill:none;stroke-width:5.00148;stroke-linecap:square;stroke-linejoin:round;stroke:rgb(0%,0%,1.197815%);stroke-opacity:1;stroke-miterlimit:10;" d="M 709.617857 -151.356593 L 709.617857 -179.635863 " transform="matrix(0.0999933,0,0,0.100007,0,187)"/>
<path style="fill:none;stroke-width:5.00148;stroke-linecap:square;stroke-linejoin:round;stroke:rgb(0%,0%,1.197815%);stroke-opacity:1;stroke-miterlimit:10;" d="M 1275.437017 -151.356593 L 1275.437017 -179.635863 " transform="matrix(0.0999933,0,0,0.100007,0,187)"/>
<path style="fill:none;stroke-width:5.00148;stroke-linecap:square;stroke-linejoin:round;stroke:rgb(0%,0%,1.197815%);stroke-opacity:1;stroke-miterlimit:10;" d="M 1841.256177 -151.356593 L 1841.256177 -179.635863 " transform="matrix(0.0999933,0,0,0.100007,0,187)"/>
<path style="fill:none;stroke-width:5.00148;stroke-linecap:square;stroke-linejoin:round;stroke:rgb(0%,0%,1.197815%);stroke-opacity:1;stroke-miterlimit:10;" d="M 2407.036271 -151.356593 L 2407.036271 -179.635863 " transform="matrix(0.0999933,0,0,0.100007,0,187)"/>
<path style="fill:none;stroke-width:5.00148;stroke-linecap:square;stroke-linejoin:round;stroke:rgb(0%,0%,1.197815%);stroke-opacity:1;stroke-miterlimit:10;" d="M 2972.855431 -151.356593 L 2972.855431 -179.635863 " transform="matrix(0.0999933,0,0,0.100007,0,187)"/>
<path style="fill:none;stroke-width:5.00148;stroke-linecap:square;stroke-linejoin:round;stroke:rgb(0%,0%,1.197815%);stroke-opacity:1;stroke-miterlimit:10;" d="M 143.798697 -1806.006392 L 143.798697 -1777.727122 " transform="matrix(0.0999933,0,0,0.100007,0,187)"/>
<path style="fill:none;stroke-width:5.00148;stroke-linecap:square;stroke-linejoin:round;stroke:rgb(0%,0%,1.197815%);stroke-opacity:1;stroke-miterlimit:10;" d="M 709.617857 -1806.006392 L 709.617857 -1777.727122 " transform="matrix(0.0999933,0,0,0.100007,0,187)"/>
<path style="fill:none;stroke-width:5.00148;stroke-linecap:square;stroke-linejoin:round;stroke:rgb(0%,0%,1.197815%);stroke-opacity:1;stroke-miterlimit:10;" d="M 1275.437017 -1806.006392 L 1275.437017 -1777.727122 " transform="matrix(0.0999933,0,0,0.100007,0,187)"/>
<path style="fill:none;stroke-width:5.00148;stroke-linecap:square;stroke-linejoin:round;stroke:rgb(0%,0%,1.197815%);stroke-opacity:1;stroke-miterlimit:10;" d="M 1841.256177 -1806.006392 L 1841.256177 -1777.727122 " transform="matrix(0.0999933,0,0,0.100007,0,187)"/>
<path style="fill:none;stroke-width:5.00148;stroke-linecap:square;stroke-linejoin:round;stroke:rgb(0%,0%,1.197815%);stroke-opacity:1;stroke-miterlimit:10;" d="M 2407.036271 -1806.006392 L 2407.036271 -1777.727122 " transform="matrix(0.0999933,0,0,0.100007,0,187)"/>
<path style="fill:none;stroke-width:5.00148;stroke-linecap:square;stroke-linejoin:round;stroke:rgb(0%,0%,1.197815%);stroke-opacity:1;stroke-miterlimit:10;" d="M 2972.855431 -1806.006392 L 2972.855431 -1777.727122 " transform="matrix(0.0999933,0,0,0.100007,0,187)"/>
<path style=" stroke:none;fill-rule:nonzero;fill:rgb(0%,0%,1.197815%);fill-opacity:1;" d="M 14.410156 184.496094 C 13.582031 184.496094 13.019531 184.15625 12.722656 183.472656 C 12.425781 182.789062 12.277344 181.980469 12.277344 181.042969 C 12.277344 180.457031 12.332031 179.902344 12.4375 179.386719 C 12.542969 178.867188 12.753906 178.429688 13.074219 178.066406 C 13.390625 177.707031 13.835938 177.523438 14.410156 177.523438 C 14.859375 177.523438 15.222656 177.632812 15.503906 177.851562 C 15.789062 178.066406 16.003906 178.347656 16.152344 178.695312 C 16.300781 179.039062 16.402344 179.410156 16.457031 179.800781 C 16.511719 180.195312 16.539062 180.609375 16.539062 181.042969 C 16.539062 181.625 16.484375 182.167969 16.378906 182.675781 C 16.273438 183.179688 16.0625 183.613281 15.75 183.964844 C 15.4375 184.320312 14.992188 184.496094 14.410156 184.496094 Z M 14.410156 184.230469 C 14.785156 184.230469 15.066406 184.039062 15.253906 183.652344 C 15.4375 183.269531 15.554688 182.84375 15.597656 182.375 C 15.640625 181.902344 15.660156 181.40625 15.660156 180.878906 C 15.660156 180.371094 15.640625 179.902344 15.597656 179.472656 C 15.554688 179.046875 15.441406 178.65625 15.257812 178.308594 C 15.074219 177.960938 14.792969 177.789062 14.410156 177.789062 C 14.03125 177.789062 13.746094 177.964844 13.5625 178.3125 C 13.378906 178.664062 13.265625 179.050781 13.222656 179.476562 C 13.179688 179.902344 13.15625 180.371094 13.15625 180.878906 C 13.15625 181.253906 13.167969 181.609375 13.183594 181.941406 C 13.203125 182.277344 13.25 182.621094 13.328125 182.972656 C 13.40625 183.328125 13.535156 183.625 13.710938 183.867188 C 13.890625 184.109375 14.121094 184.230469 14.410156 184.230469 "/>
<path style=" stroke:none;fill-rule:nonzero;fill:rgb(0%,0%,1.197815%);fill-opacity:1;" d="M 68.960938 184.273438 L 68.960938 184.003906 C 68.960938 183.984375 68.96875 183.964844 68.976562 183.945312 L 70.554688 182.203125 C 70.792969 181.945312 70.984375 181.730469 71.132812 181.554688 C 71.28125 181.382812 71.425781 181.179688 71.574219 180.953125 C 71.71875 180.726562 71.835938 180.496094 71.917969 180.261719 C 72.003906 180.023438 72.042969 179.773438 72.042969 179.507812 C 72.042969 179.230469 71.992188 178.96875 71.890625 178.714844 C 71.785156 178.460938 71.632812 178.257812 71.433594 178.109375 C 71.230469 177.957031 70.984375 177.882812 70.695312 177.882812 C 70.402344 177.882812 70.140625 177.96875 69.90625 178.144531 C 69.671875 178.320312 69.507812 178.550781 69.410156 178.832031 C 69.441406 178.824219 69.476562 178.820312 69.519531 178.820312 C 69.671875 178.820312 69.800781 178.871094 69.90625 178.972656 C 70.015625 179.074219 70.070312 179.207031 70.070312 179.371094 C 70.070312 179.523438 70.015625 179.652344 69.90625 179.761719 C 69.800781 179.867188 69.671875 179.921875 69.519531 179.921875 C 69.359375 179.921875 69.230469 179.867188 69.121094 179.757812 C 69.015625 179.648438 68.960938 179.519531 68.960938 179.371094 C 68.960938 179.117188 69.007812 178.878906 69.105469 178.65625 C 69.199219 178.433594 69.339844 178.234375 69.519531 178.0625 C 69.699219 177.886719 69.902344 177.753906 70.128906 177.664062 C 70.355469 177.570312 70.59375 177.523438 70.847656 177.523438 C 71.230469 177.523438 71.589844 177.605469 71.925781 177.769531 C 72.257812 177.933594 72.523438 178.164062 72.714844 178.460938 C 72.910156 178.757812 73.007812 179.105469 73.007812 179.507812 C 73.007812 179.804688 72.941406 180.082031 72.8125 180.347656 C 72.683594 180.613281 72.519531 180.851562 72.320312 181.066406 C 72.121094 181.28125 71.863281 181.523438 71.550781 181.796875 C 71.234375 182.074219 71.027344 182.257812 70.929688 182.351562 L 69.78125 183.453125 L 70.753906 183.453125 C 71.234375 183.453125 71.636719 183.449219 71.957031 183.441406 C 72.277344 183.433594 72.449219 183.417969 72.46875 183.398438 C 72.546875 183.316406 72.632812 183.007812 72.714844 182.46875 L 73.007812 182.46875 L 72.71875 184.273438 L 68.960938 184.273438 "/>
<path style=" stroke:none;fill-rule:nonzero;fill:rgb(0%,0%,1.197815%);fill-opacity:1;" d="M 125.316406 182.601562 L 125.316406 182.242188 L 128.445312 177.578125 C 128.46875 177.542969 128.503906 177.523438 128.550781 177.523438 L 128.699219 177.523438 C 128.777344 177.523438 128.816406 177.5625 128.816406 177.640625 L 128.816406 182.242188 L 129.804688 182.242188 L 129.804688 182.601562 L 128.816406 182.601562 L 128.816406 183.59375 C 128.816406 183.734375 128.914062 183.824219 129.109375 183.859375 C 129.308594 183.894531 129.539062 183.914062 129.800781 183.914062 L 129.800781 184.273438 L 127.007812 184.273438 L 127.007812 183.914062 C 127.269531 183.914062 127.496094 183.894531 127.695312 183.859375 C 127.894531 183.824219 127.996094 183.734375 127.996094 183.59375 L 127.996094 182.601562 Z M 125.648438 182.242188 L 128.054688 182.242188 L 128.054688 178.65625 Z M 125.648438 182.242188 "/>
<path style=" stroke:none;fill-rule:nonzero;fill:rgb(0%,0%,1.197815%);fill-opacity:1;" d="M 184.144531 184.496094 C 183.726562 184.496094 183.375 184.382812 183.09375 184.160156 C 182.8125 183.9375 182.597656 183.648438 182.441406 183.296875 C 182.289062 182.941406 182.1875 182.570312 182.128906 182.183594 C 182.066406 181.792969 182.039062 181.398438 182.039062 180.996094 C 182.039062 180.464844 182.144531 179.929688 182.351562 179.390625 C 182.558594 178.855469 182.863281 178.410156 183.265625 178.054688 C 183.671875 177.703125 184.148438 177.523438 184.699219 177.523438 C 184.929688 177.523438 185.148438 177.570312 185.347656 177.65625 C 185.550781 177.742188 185.707031 177.875 185.820312 178.042969 C 185.933594 178.214844 185.988281 178.417969 185.988281 178.65625 C 185.988281 178.796875 185.941406 178.914062 185.847656 179.007812 C 185.753906 179.101562 185.636719 179.148438 185.496094 179.148438 C 185.363281 179.148438 185.25 179.101562 185.15625 179.003906 C 185.0625 178.910156 185.015625 178.792969 185.015625 178.65625 C 185.015625 178.527344 185.0625 178.414062 185.15625 178.320312 C 185.25 178.222656 185.363281 178.175781 185.496094 178.175781 L 185.550781 178.175781 C 185.46875 178.050781 185.347656 177.960938 185.191406 177.902344 C 185.03125 177.84375 184.867188 177.816406 184.699219 177.816406 C 184.496094 177.816406 184.308594 177.863281 184.136719 177.949219 C 183.960938 178.039062 183.804688 178.15625 183.667969 178.308594 C 183.53125 178.460938 183.417969 178.628906 183.324219 178.8125 C 183.230469 178.996094 183.15625 179.207031 183.105469 179.441406 C 183.054688 179.675781 183.023438 179.894531 183.007812 180.097656 C 182.996094 180.300781 182.988281 180.558594 182.988281 180.867188 C 183.109375 180.59375 183.277344 180.367188 183.496094 180.1875 C 183.714844 180.011719 183.957031 179.921875 184.230469 179.921875 C 184.53125 179.921875 184.808594 179.984375 185.054688 180.105469 C 185.304688 180.230469 185.515625 180.398438 185.695312 180.613281 C 185.871094 180.828125 186.007812 181.074219 186.101562 181.351562 C 186.195312 181.628906 186.242188 181.910156 186.242188 182.199219 C 186.242188 182.59375 186.152344 182.96875 185.976562 183.324219 C 185.796875 183.683594 185.550781 183.96875 185.230469 184.179688 C 184.914062 184.390625 184.550781 184.496094 184.144531 184.496094 Z M 184.144531 184.171875 C 184.40625 184.171875 184.613281 184.113281 184.773438 183.992188 C 184.933594 183.875 185.046875 183.71875 185.121094 183.523438 C 185.195312 183.328125 185.242188 183.128906 185.261719 182.929688 C 185.277344 182.730469 185.285156 182.488281 185.285156 182.199219 C 185.285156 181.8125 185.269531 181.488281 185.230469 181.214844 C 185.195312 180.945312 185.09375 180.707031 184.933594 180.5 C 184.773438 180.292969 184.527344 180.191406 184.191406 180.191406 C 183.917969 180.191406 183.691406 180.285156 183.515625 180.46875 C 183.339844 180.652344 183.214844 180.886719 183.132812 181.167969 C 183.050781 181.453125 183.011719 181.722656 183.011719 181.980469 C 183.011719 182.070312 183.015625 182.136719 183.019531 182.183594 C 183.019531 182.195312 183.019531 182.199219 183.019531 182.207031 C 183.019531 182.21875 183.015625 182.226562 183.011719 182.230469 C 183.011719 182.523438 183.039062 182.820312 183.101562 183.113281 C 183.160156 183.410156 183.273438 183.660156 183.441406 183.863281 C 183.609375 184.070312 183.84375 184.171875 184.144531 184.171875 "/>
<path style=" stroke:none;fill-rule:nonzero;fill:rgb(0%,0%,1.197815%);fill-opacity:1;" d="M 238.617188 182.738281 C 238.617188 182.332031 238.75 181.96875 239.015625 181.65625 C 239.28125 181.34375 239.621094 181.085938 240.039062 180.878906 L 239.664062 180.636719 C 239.433594 180.484375 239.246094 180.28125 239.101562 180.03125 C 238.957031 179.777344 238.886719 179.511719 238.886719 179.238281 C 238.886719 178.910156 238.972656 178.621094 239.140625 178.359375 C 239.3125 178.101562 239.535156 177.894531 239.816406 177.746094 C 240.097656 177.597656 240.398438 177.523438 240.71875 177.523438 C 241.019531 177.523438 241.3125 177.585938 241.589844 177.707031 C 241.867188 177.832031 242.09375 178.007812 242.273438 178.234375 C 242.453125 178.460938 242.542969 178.730469 242.542969 179.042969 C 242.542969 179.269531 242.492188 179.480469 242.386719 179.675781 C 242.28125 179.871094 242.132812 180.046875 241.945312 180.199219 C 241.757812 180.355469 241.558594 180.488281 241.347656 180.597656 L 241.929688 180.964844 C 242.195312 181.140625 242.410156 181.371094 242.574219 181.65625 C 242.738281 181.9375 242.820312 182.238281 242.820312 182.550781 C 242.820312 182.917969 242.722656 183.25 242.523438 183.550781 C 242.324219 183.851562 242.066406 184.085938 241.742188 184.25 C 241.421875 184.414062 241.078125 184.496094 240.71875 184.496094 C 240.371094 184.496094 240.035156 184.425781 239.710938 184.28125 C 239.382812 184.136719 239.117188 183.933594 238.917969 183.667969 C 238.71875 183.398438 238.617188 183.089844 238.617188 182.738281 Z M 239.160156 182.738281 C 239.160156 183.003906 239.234375 183.246094 239.382812 183.464844 C 239.527344 183.6875 239.722656 183.859375 239.964844 183.984375 C 240.207031 184.109375 240.460938 184.171875 240.71875 184.171875 C 241.109375 184.171875 241.46875 184.058594 241.789062 183.832031 C 242.109375 183.601562 242.269531 183.296875 242.269531 182.917969 C 242.269531 182.789062 242.242188 182.660156 242.191406 182.535156 C 242.140625 182.40625 242.070312 182.292969 241.980469 182.1875 C 241.890625 182.085938 241.789062 182 241.675781 181.933594 L 240.316406 181.054688 C 240.105469 181.164062 239.910156 181.304688 239.734375 181.476562 C 239.558594 181.648438 239.421875 181.839844 239.316406 182.054688 C 239.214844 182.269531 239.160156 182.5 239.160156 182.738281 Z M 239.859375 179.640625 L 241.085938 180.433594 C 241.371094 180.269531 241.601562 180.070312 241.785156 179.835938 C 241.964844 179.601562 242.058594 179.335938 242.058594 179.042969 C 242.058594 178.816406 241.992188 178.609375 241.867188 178.417969 C 241.738281 178.230469 241.574219 178.082031 241.367188 177.976562 C 241.164062 177.871094 240.941406 177.816406 240.710938 177.816406 C 240.507812 177.816406 240.300781 177.855469 240.09375 177.933594 C 239.886719 178.011719 239.714844 178.132812 239.578125 178.289062 C 239.445312 178.449219 239.378906 178.632812 239.378906 178.84375 C 239.378906 179.160156 239.539062 179.425781 239.859375 179.640625 "/>
<path style=" stroke:none;fill-rule:nonzero;fill:rgb(0%,0%,1.197815%);fill-opacity:1;" d="M 293.203125 184.273438 L 293.203125 183.914062 C 294.046875 183.914062 294.46875 183.808594 294.46875 183.59375 L 294.46875 178.273438 C 294.121094 178.441406 293.679688 178.527344 293.144531 178.527344 L 293.144531 178.175781 C 293.972656 178.175781 294.597656 177.957031 295.019531 177.523438 L 295.160156 177.523438 C 295.183594 177.523438 295.207031 177.53125 295.226562 177.550781 C 295.25 177.570312 295.261719 177.589844 295.261719 177.613281 L 295.261719 183.59375 C 295.261719 183.808594 295.683594 183.914062 296.527344 183.914062 L 296.527344 184.273438 L 293.203125 184.273438 "/>
<path style=" stroke:none;fill-rule:nonzero;fill:rgb(0%,0%,1.197815%);fill-opacity:1;" d="M 299.800781 184.496094 C 298.972656 184.496094 298.40625 184.15625 298.109375 183.472656 C 297.8125 182.789062 297.664062 181.980469 297.664062 181.042969 C 297.664062 180.457031 297.71875 179.902344 297.824219 179.386719 C 297.929688 178.867188 298.140625 178.429688 298.460938 178.066406 C 298.777344 177.707031 299.222656 177.523438 299.800781 177.523438 C 300.246094 177.523438 300.609375 177.632812 300.890625 177.851562 C 301.175781 178.066406 301.390625 178.347656 301.539062 178.695312 C 301.6875 179.039062 301.789062 179.410156 301.84375 179.800781 C 301.898438 180.195312 301.925781 180.609375 301.925781 181.042969 C 301.925781 181.625 301.871094 182.167969 301.765625 182.675781 C 301.65625 183.179688 301.449219 183.613281 301.136719 183.964844 C 300.824219 184.320312 300.378906 184.496094 299.800781 184.496094 Z M 299.800781 184.230469 C 300.175781 184.230469 300.453125 184.039062 300.640625 183.652344 C 300.824219 183.269531 300.941406 182.84375 300.984375 182.375 C 301.027344 181.902344 301.046875 181.40625 301.046875 180.878906 C 301.046875 180.371094 301.027344 179.902344 300.984375 179.472656 C 300.941406 179.046875 300.828125 178.65625 300.644531 178.308594 C 300.460938 177.960938 300.179688 177.789062 299.800781 177.789062 C 299.414062 177.789062 299.132812 177.964844 298.949219 178.3125 C 298.765625 178.664062 298.652344 179.050781 298.609375 179.476562 C 298.566406 179.902344 298.542969 180.371094 298.542969 180.878906 C 298.542969 181.253906 298.554688 181.609375 298.570312 181.941406 C 298.589844 182.277344 298.636719 182.621094 298.714844 182.972656 C 298.792969 183.328125 298.921875 183.625 299.097656 183.867188 C 299.277344 184.109375 299.511719 184.230469 299.800781 184.230469 "/>
<path style="fill:none;stroke-width:5.00148;stroke-linecap:square;stroke-linejoin:round;stroke:rgb(0%,0%,1.197815%);stroke-opacity:1;stroke-miterlimit:10;" d="M 143.798697 -151.356593 L 143.798697 -1806.006392 " transform="matrix(0.0999933,0,0,0.100007,0,187)"/>
<path style="fill:none;stroke-width:5.00148;stroke-linecap:square;stroke-linejoin:round;stroke:rgb(0%,0%,1.197815%);stroke-opacity:1;stroke-miterlimit:10;" d="M 2972.855431 -151.356593 L 2972.855431 -1806.006392 " transform="matrix(0.0999933,0,0,0.100007,0,187)"/>
<path style="fill:none;stroke-width:5.00148;stroke-linecap:square;stroke-linejoin:round;stroke:rgb(0%,0%,1.197815%);stroke-opacity:1;stroke-miterlimit:10;" d="M 143.798697 -151.356593 L 172.120907 -151.356593 " transform="matrix(0.0999933,0,0,0.100007,0,187)"/>
<path style="fill:none;stroke-width:5.00148;stroke-linecap:square;stroke-linejoin:round;stroke:rgb(0%,0%,1.197815%);stroke-opacity:1;stroke-miterlimit:10;" d="M 143.798697 -387.707235 L 172.120907 -387.707235 " transform="matrix(0.0999933,0,0,0.100007,0,187)"/>
<path style="fill:none;stroke-width:5.00148;stroke-linecap:square;stroke-linejoin:round;stroke:rgb(0%,0%,1.197815%);stroke-opacity:1;stroke-miterlimit:10;" d="M 143.798697 -624.096938 L 172.120907 -624.096938 " transform="matrix(0.0999933,0,0,0.100007,0,187)"/>
<path style="fill:none;stroke-width:5.00148;stroke-linecap:square;stroke-linejoin:round;stroke:rgb(0%,0%,1.197815%);stroke-opacity:1;stroke-miterlimit:10;" d="M 143.798697 -860.486641 L 172.120907 -860.486641 " transform="matrix(0.0999933,0,0,0.100007,0,187)"/>
<path style="fill:none;stroke-width:5.00148;stroke-linecap:square;stroke-linejoin:round;stroke:rgb(0%,0%,1.197815%);stroke-opacity:1;stroke-miterlimit:10;" d="M 143.798697 -1096.876344 L 172.120907 -1096.876344 " transform="matrix(0.0999933,0,0,0.100007,0,187)"/>
<path style="fill:none;stroke-width:5.00148;stroke-linecap:square;stroke-linejoin:round;stroke:rgb(0%,0%,1.197815%);stroke-opacity:1;stroke-miterlimit:10;" d="M 143.798697 -1333.226987 L 172.120907 -1333.226987 " transform="matrix(0.0999933,0,0,0.100007,0,187)"/>
<path style="fill:none;stroke-width:5.00148;stroke-linecap:square;stroke-linejoin:round;stroke:rgb(0%,0%,1.197815%);stroke-opacity:1;stroke-miterlimit:10;" d="M 143.798697 -1569.616689 L 172.120907 -1569.616689 " transform="matrix(0.0999933,0,0,0.100007,0,187)"/>
<path style="fill:none;stroke-width:5.00148;stroke-linecap:square;stroke-linejoin:round;stroke:rgb(0%,0%,1.197815%);stroke-opacity:1;stroke-miterlimit:10;" d="M 143.798697 -1806.006392 L 172.120907 -1806.006392 " transform="matrix(0.0999933,0,0,0.100007,0,187)"/>
<path style="fill:none;stroke-width:5.00148;stroke-linecap:square;stroke-linejoin:round;stroke:rgb(0%,0%,1.197815%);stroke-opacity:1;stroke-miterlimit:10;" d="M 2972.855431 -151.356593 L 2944.572286 -151.356593 " transform="matrix(0.0999933,0,0,0.100007,0,187)"/>
<path style="fill:none;stroke-width:5.00148;stroke-linecap:square;stroke-linejoin:round;stroke:rgb(0%,0%,1.197815%);stroke-opacity:1;stroke-miterlimit:10;" d="M 2972.855431 -387.707235 L 2944.572286 -387.707235 " transform="matrix(0.0999933,0,0,0.100007,0,187)"/>
<path style="fill:none;stroke-width:5.00148;stroke-linecap:square;stroke-linejoin:round;stroke:rgb(0%,0%,1.197815%);stroke-opacity:1;stroke-miterlimit:10;" d="M 2972.855431 -624.096938 L 2944.572286 -624.096938 " transform="matrix(0.0999933,0,0,0.100007,0,187)"/>
<path style="fill:none;stroke-width:5.00148;stroke-linecap:square;stroke-linejoin:round;stroke:rgb(0%,0%,1.197815%);stroke-opacity:1;stroke-miterlimit:10;" d="M 2972.855431 -860.486641 L 2944.572286 -860.486641 " transform="matrix(0.0999933,0,0,0.100007,0,187)"/>
<path style="fill:none;stroke-width:5.00148;stroke-linecap:square;stroke-linejoin:round;stroke:rgb(0%,0%,1.197815%);stroke-opacity:1;stroke-miterlimit:10;" d="M 2972.855431 -1096.876344 L 2944.572286 -1096.876344 " transform="matrix(0.0999933,0,0,0.100007,0,187)"/>
<path style="fill:none;stroke-width:5.00148;stroke-linecap:square;stroke-linejoin:round;stroke:rgb(0%,0%,1.197815%);stroke-opacity:1;stroke-miterlimit:10;" d="M 2972.855431 -1333.226987 L 2944.572286 -1333.226987 " transform="matrix(0.0999933,0,0,0.100007,0,187)"/>
<path style="fill:none;stroke-width:5.00148;stroke-linecap:square;stroke-linejoin:round;stroke:rgb(0%,0%,1.197815%);stroke-opacity:1;stroke-miterlimit:10;" d="M 2972.855431 -1569.616689 L 2944.572286 -1569.616689 " transform="matrix(0.0999933,0,0,0.100007,0,187)"/>
<path style="fill:none;stroke-width:5.00148;stroke-linecap:square;stroke-linejoin:round;stroke:rgb(0%,0%,1.197815%);stroke-opacity:1;stroke-miterlimit:10;" d="M 2972.855431 -1806.006392 L 2944.572286 -1806.006392 " transform="matrix(0.0999933,0,0,0.100007,0,187)"/>
<path style=" stroke:none;fill-rule:nonzero;fill:rgb(0%,0%,1.197815%);fill-opacity:1;" d="M 2.152344 172.390625 L 2.152344 171.761719 L 4.835938 171.761719 L 4.835938 172.390625 L 2.152344 172.390625 "/>
<path style=" stroke:none;fill-rule:nonzero;fill:rgb(0%,0%,1.197815%);fill-opacity:1;" d="M 7.910156 174.488281 C 7.492188 174.488281 7.140625 174.378906 6.859375 174.15625 C 6.578125 173.933594 6.363281 173.644531 6.207031 173.289062 C 6.054688 172.9375 5.949219 172.566406 5.894531 172.175781 C 5.832031 171.789062 5.804688 171.390625 5.804688 170.988281 C 5.804688 170.457031 5.90625 169.921875 6.113281 169.386719 C 6.324219 168.847656 6.628906 168.402344 7.03125 168.046875 C 7.4375 167.695312 7.914062 167.519531 8.464844 167.519531 C 8.695312 167.519531 8.914062 167.5625 9.113281 167.648438 C 9.316406 167.738281 9.472656 167.867188 9.585938 168.035156 C 9.699219 168.207031 9.757812 168.410156 9.757812 168.648438 C 9.757812 168.789062 9.707031 168.90625 9.613281 169 C 9.519531 169.09375 9.402344 169.144531 9.261719 169.144531 C 9.128906 169.144531 9.015625 169.09375 8.921875 169 C 8.828125 168.902344 8.78125 168.785156 8.78125 168.648438 C 8.78125 168.519531 8.828125 168.410156 8.921875 168.3125 C 9.015625 168.21875 9.128906 168.167969 9.261719 168.167969 L 9.316406 168.167969 C 9.234375 168.042969 9.113281 167.953125 8.957031 167.894531 C 8.796875 167.839844 8.632812 167.8125 8.464844 167.8125 C 8.261719 167.8125 8.074219 167.855469 7.898438 167.941406 C 7.726562 168.03125 7.570312 168.152344 7.433594 168.304688 C 7.296875 168.457031 7.183594 168.625 7.089844 168.808594 C 6.996094 168.992188 6.921875 169.199219 6.871094 169.433594 C 6.820312 169.667969 6.789062 169.890625 6.773438 170.09375 C 6.761719 170.296875 6.753906 170.550781 6.753906 170.859375 C 6.875 170.585938 7.042969 170.359375 7.261719 170.183594 C 7.476562 170.003906 7.722656 169.914062 7.996094 169.914062 C 8.296875 169.914062 8.574219 169.976562 8.820312 170.101562 C 9.070312 170.222656 9.28125 170.394531 9.460938 170.609375 C 9.636719 170.824219 9.773438 171.070312 9.867188 171.347656 C 9.960938 171.625 10.007812 171.90625 10.007812 172.191406 C 10.007812 172.585938 9.917969 172.960938 9.742188 173.320312 C 9.5625 173.675781 9.316406 173.960938 8.996094 174.171875 C 8.679688 174.382812 8.316406 174.488281 7.910156 174.488281 Z M 7.910156 174.167969 C 8.171875 174.167969 8.382812 174.105469 8.539062 173.988281 C 8.699219 173.867188 8.8125 173.710938 8.886719 173.515625 C 8.960938 173.320312 9.007812 173.125 9.027344 172.921875 C 9.042969 172.722656 9.050781 172.480469 9.050781 172.191406 C 9.050781 171.808594 9.035156 171.480469 8.996094 171.207031 C 8.960938 170.9375 8.859375 170.699219 8.699219 170.492188 C 8.539062 170.289062 8.292969 170.1875 7.957031 170.1875 C 7.683594 170.1875 7.457031 170.277344 7.28125 170.460938 C 7.105469 170.644531 6.976562 170.878906 6.898438 171.160156 C 6.816406 171.445312 6.777344 171.714844 6.777344 171.972656 C 6.777344 172.0625 6.78125 172.132812 6.785156 172.179688 C 6.785156 172.1875 6.785156 172.195312 6.785156 172.203125 C 6.785156 172.210938 6.78125 172.21875 6.777344 172.226562 C 6.777344 172.519531 6.808594 172.8125 6.867188 173.109375 C 6.925781 173.402344 7.039062 173.652344 7.207031 173.859375 C 7.375 174.0625 7.609375 174.167969 7.910156 174.167969 "/>
<path style=" stroke:none;fill-rule:nonzero;fill:rgb(0%,0%,1.197815%);fill-opacity:1;" d="M 2.152344 148.75 L 2.152344 148.125 L 4.835938 148.125 L 4.835938 148.75 L 2.152344 148.75 "/>
<path style=" stroke:none;fill-rule:nonzero;fill:rgb(0%,0%,1.197815%);fill-opacity:1;" d="M 5.65625 148.957031 L 5.65625 148.597656 L 8.789062 143.929688 C 8.8125 143.898438 8.847656 143.878906 8.894531 143.878906 L 9.039062 143.878906 C 9.117188 143.878906 9.15625 143.917969 9.15625 143.996094 L 9.15625 148.597656 L 10.148438 148.597656 L 10.148438 148.957031 L 9.15625 148.957031 L 9.15625 149.945312 C 9.15625 150.085938 9.257812 150.175781 9.453125 150.214844 C 9.652344 150.25 9.882812 150.269531 10.144531 150.269531 L 10.144531 150.628906 L 7.351562 150.628906 L 7.351562 150.269531 C 7.609375 150.269531 7.839844 150.25 8.039062 150.214844 C 8.238281 150.175781 8.335938 150.085938 8.335938 149.945312 L 8.335938 148.957031 Z M 5.992188 148.597656 L 8.394531 148.597656 L 8.394531 145.011719 Z M 5.992188 148.597656 "/>
<path style=" stroke:none;fill-rule:nonzero;fill:rgb(0%,0%,1.197815%);fill-opacity:1;" d="M 2.152344 125.109375 L 2.152344 124.484375 L 4.835938 124.484375 L 4.835938 125.109375 L 2.152344 125.109375 "/>
<path style=" stroke:none;fill-rule:nonzero;fill:rgb(0%,0%,1.197815%);fill-opacity:1;" d="M 5.878906 126.988281 L 5.878906 126.71875 C 5.878906 126.699219 5.886719 126.679688 5.898438 126.660156 L 7.476562 124.917969 C 7.714844 124.660156 7.90625 124.445312 8.050781 124.269531 C 8.199219 124.097656 8.34375 123.894531 8.492188 123.667969 C 8.636719 123.441406 8.753906 123.210938 8.839844 122.972656 C 8.921875 122.738281 8.964844 122.488281 8.964844 122.222656 C 8.964844 121.949219 8.914062 121.683594 8.808594 121.429688 C 8.707031 121.175781 8.550781 120.972656 8.351562 120.824219 C 8.148438 120.671875 7.90625 120.597656 7.617188 120.597656 C 7.324219 120.597656 7.058594 120.683594 6.824219 120.859375 C 6.589844 121.035156 6.425781 121.265625 6.332031 121.546875 C 6.359375 121.539062 6.394531 121.535156 6.4375 121.535156 C 6.589844 121.535156 6.71875 121.585938 6.828125 121.6875 C 6.933594 121.789062 6.988281 121.921875 6.988281 122.085938 C 6.988281 122.238281 6.933594 122.367188 6.828125 122.476562 C 6.71875 122.582031 6.589844 122.636719 6.4375 122.636719 C 6.28125 122.636719 6.148438 122.582031 6.042969 122.472656 C 5.933594 122.363281 5.878906 122.234375 5.878906 122.085938 C 5.878906 121.832031 5.929688 121.59375 6.023438 121.371094 C 6.121094 121.148438 6.257812 120.949219 6.4375 120.777344 C 6.617188 120.601562 6.820312 120.46875 7.046875 120.378906 C 7.273438 120.285156 7.515625 120.238281 7.769531 120.238281 C 8.152344 120.238281 8.511719 120.320312 8.84375 120.484375 C 9.179688 120.648438 9.441406 120.878906 9.636719 121.175781 C 9.828125 121.472656 9.925781 121.824219 9.925781 122.222656 C 9.925781 122.519531 9.863281 122.796875 9.730469 123.0625 C 9.601562 123.328125 9.4375 123.566406 9.238281 123.78125 C 9.039062 123.996094 8.785156 124.238281 8.46875 124.511719 C 8.15625 124.785156 7.949219 124.96875 7.851562 125.066406 L 6.703125 126.167969 L 7.675781 126.167969 C 8.15625 126.167969 8.554688 126.164062 8.875 126.15625 C 9.195312 126.148438 9.367188 126.132812 9.386719 126.113281 C 9.46875 126.03125 9.550781 125.722656 9.632812 125.179688 L 9.925781 125.179688 L 9.636719 126.988281 L 5.878906 126.988281 "/>
<path style=" stroke:none;fill-rule:nonzero;fill:rgb(0%,0%,1.197815%);fill-opacity:1;" d="M 7.910156 103.570312 C 7.082031 103.570312 6.519531 103.230469 6.21875 102.546875 C 5.925781 101.867188 5.773438 101.054688 5.773438 100.117188 C 5.773438 99.53125 5.828125 98.980469 5.933594 98.460938 C 6.039062 97.941406 6.25 97.503906 6.570312 97.140625 C 6.886719 96.78125 7.335938 96.597656 7.910156 96.597656 C 8.355469 96.597656 8.71875 96.707031 9.003906 96.925781 C 9.285156 97.140625 9.5 97.421875 9.648438 97.769531 C 9.796875 98.113281 9.898438 98.484375 9.957031 98.878906 C 10.011719 99.269531 10.035156 99.683594 10.035156 100.117188 C 10.035156 100.699219 9.984375 101.242188 9.875 101.75 C 9.769531 102.257812 9.558594 102.6875 9.246094 103.039062 C 8.933594 103.394531 8.488281 103.570312 7.910156 103.570312 Z M 7.910156 103.308594 C 8.285156 103.308594 8.566406 103.113281 8.75 102.730469 C 8.9375 102.34375 9.050781 101.917969 9.09375 101.449219 C 9.136719 100.980469 9.15625 100.480469 9.15625 99.953125 C 9.15625 99.445312 9.136719 98.976562 9.09375 98.550781 C 9.050781 98.121094 8.9375 97.734375 8.753906 97.386719 C 8.570312 97.039062 8.289062 96.863281 7.910156 96.863281 C 7.527344 96.863281 7.242188 97.039062 7.058594 97.386719 C 6.875 97.738281 6.761719 98.125 6.71875 98.550781 C 6.675781 98.976562 6.65625 99.445312 6.65625 99.953125 C 6.65625 100.328125 6.664062 100.683594 6.679688 101.015625 C 6.699219 101.351562 6.746094 101.695312 6.824219 102.050781 C 6.902344 102.402344 7.03125 102.703125 7.207031 102.945312 C 7.386719 103.1875 7.621094 103.308594 7.910156 103.308594 "/>
<path style=" stroke:none;fill-rule:nonzero;fill:rgb(0%,0%,1.197815%);fill-opacity:1;" d="M 5.878906 79.707031 L 5.878906 79.4375 C 5.878906 79.417969 5.886719 79.398438 5.898438 79.378906 L 7.476562 77.640625 C 7.714844 77.382812 7.90625 77.164062 8.050781 76.992188 C 8.199219 76.816406 8.34375 76.617188 8.492188 76.390625 C 8.636719 76.164062 8.753906 75.933594 8.839844 75.695312 C 8.921875 75.460938 8.964844 75.207031 8.964844 74.941406 C 8.964844 74.667969 8.914062 74.402344 8.808594 74.148438 C 8.707031 73.894531 8.550781 73.695312 8.351562 73.542969 C 8.148438 73.394531 7.90625 73.316406 7.617188 73.316406 C 7.324219 73.316406 7.058594 73.40625 6.824219 73.582031 C 6.589844 73.757812 6.425781 73.984375 6.332031 74.269531 C 6.359375 74.261719 6.394531 74.257812 6.4375 74.257812 C 6.589844 74.257812 6.71875 74.308594 6.828125 74.40625 C 6.933594 74.511719 6.988281 74.644531 6.988281 74.808594 C 6.988281 74.960938 6.933594 75.089844 6.828125 75.195312 C 6.71875 75.304688 6.589844 75.359375 6.4375 75.359375 C 6.28125 75.359375 6.148438 75.304688 6.042969 75.195312 C 5.933594 75.085938 5.878906 74.953125 5.878906 74.808594 C 5.878906 74.554688 5.929688 74.3125 6.023438 74.089844 C 6.121094 73.867188 6.257812 73.671875 6.4375 73.496094 C 6.617188 73.324219 6.820312 73.191406 7.046875 73.097656 C 7.273438 73.007812 7.515625 72.960938 7.769531 72.960938 C 8.152344 72.960938 8.511719 73.042969 8.84375 73.207031 C 9.179688 73.371094 9.441406 73.601562 9.636719 73.898438 C 9.828125 74.195312 9.925781 74.542969 9.925781 74.941406 C 9.925781 75.238281 9.863281 75.519531 9.730469 75.78125 C 9.601562 76.046875 9.4375 76.285156 9.238281 76.5 C 9.039062 76.714844 8.785156 76.960938 8.46875 77.234375 C 8.15625 77.507812 7.949219 77.691406 7.851562 77.785156 L 6.703125 78.886719 L 7.675781 78.886719 C 8.15625 78.886719 8.554688 78.882812 8.875 78.875 C 9.195312 78.867188 9.367188 78.855469 9.386719 78.835938 C 9.46875 78.753906 9.550781 78.441406 9.632812 77.902344 L 9.925781 77.902344 L 9.636719 79.707031 L 5.878906 79.707031 "/>
<path style=" stroke:none;fill-rule:nonzero;fill:rgb(0%,0%,1.197815%);fill-opacity:1;" d="M 5.65625 54.398438 L 5.65625 54.039062 L 8.789062 49.371094 C 8.8125 49.339844 8.847656 49.320312 8.894531 49.320312 L 9.039062 49.320312 C 9.117188 49.320312 9.15625 49.359375 9.15625 49.4375 L 9.15625 54.039062 L 10.148438 54.039062 L 10.148438 54.398438 L 9.15625 54.398438 L 9.15625 55.390625 C 9.15625 55.527344 9.257812 55.617188 9.453125 55.65625 C 9.652344 55.691406 9.882812 55.710938 10.144531 55.710938 L 10.144531 56.070312 L 7.351562 56.070312 L 7.351562 55.710938 C 7.609375 55.710938 7.839844 55.691406 8.039062 55.65625 C 8.238281 55.617188 8.335938 55.527344 8.335938 55.390625 L 8.335938 54.398438 Z M 5.992188 54.039062 L 8.394531 54.039062 L 8.394531 50.453125 Z M 5.992188 54.039062 "/>
<path style=" stroke:none;fill-rule:nonzero;fill:rgb(0%,0%,1.197815%);fill-opacity:1;" d="M 7.910156 32.652344 C 7.492188 32.652344 7.140625 32.539062 6.859375 32.316406 C 6.578125 32.09375 6.363281 31.808594 6.207031 31.453125 C 6.054688 31.097656 5.949219 30.726562 5.894531 30.339844 C 5.832031 29.949219 5.804688 29.554688 5.804688 29.152344 C 5.804688 28.621094 5.90625 28.085938 6.113281 27.546875 C 6.324219 27.011719 6.628906 26.566406 7.03125 26.210938 C 7.4375 25.859375 7.914062 25.679688 8.464844 25.679688 C 8.695312 25.679688 8.914062 25.726562 9.113281 25.8125 C 9.316406 25.902344 9.472656 26.03125 9.585938 26.199219 C 9.699219 26.371094 9.757812 26.574219 9.757812 26.8125 C 9.757812 26.953125 9.707031 27.070312 9.613281 27.164062 C 9.519531 27.257812 9.402344 27.304688 9.261719 27.304688 C 9.128906 27.304688 9.015625 27.257812 8.921875 27.160156 C 8.828125 27.066406 8.78125 26.949219 8.78125 26.8125 C 8.78125 26.683594 8.828125 26.570312 8.921875 26.476562 C 9.015625 26.378906 9.128906 26.332031 9.261719 26.332031 L 9.316406 26.332031 C 9.234375 26.207031 9.113281 26.117188 8.957031 26.058594 C 8.796875 26.003906 8.632812 25.972656 8.464844 25.972656 C 8.261719 25.972656 8.074219 26.019531 7.898438 26.105469 C 7.726562 26.195312 7.570312 26.3125 7.433594 26.464844 C 7.296875 26.617188 7.183594 26.785156 7.089844 26.972656 C 6.996094 27.152344 6.921875 27.363281 6.871094 27.597656 C 6.820312 27.832031 6.789062 28.050781 6.773438 28.253906 C 6.761719 28.457031 6.753906 28.714844 6.753906 29.023438 C 6.875 28.75 7.042969 28.523438 7.261719 28.347656 C 7.476562 28.167969 7.722656 28.078125 7.996094 28.078125 C 8.296875 28.078125 8.574219 28.140625 8.820312 28.265625 C 9.070312 28.386719 9.28125 28.554688 9.460938 28.769531 C 9.636719 28.984375 9.773438 29.230469 9.867188 29.511719 C 9.960938 29.785156 10.007812 30.066406 10.007812 30.355469 C 10.007812 30.746094 9.917969 31.125 9.742188 31.480469 C 9.5625 31.839844 9.316406 32.125 8.996094 32.335938 C 8.679688 32.546875 8.316406 32.652344 7.910156 32.652344 Z M 7.910156 32.328125 C 8.171875 32.328125 8.382812 32.269531 8.539062 32.152344 C 8.699219 32.03125 8.8125 31.875 8.886719 31.679688 C 8.960938 31.484375 9.007812 31.285156 9.027344 31.085938 C 9.042969 30.886719 9.050781 30.644531 9.050781 30.355469 C 9.050781 29.972656 9.035156 29.644531 8.996094 29.371094 C 8.960938 29.101562 8.859375 28.863281 8.699219 28.65625 C 8.539062 28.449219 8.292969 28.347656 7.957031 28.347656 C 7.683594 28.347656 7.457031 28.441406 7.28125 28.625 C 7.105469 28.808594 6.976562 29.039062 6.898438 29.324219 C 6.816406 29.609375 6.777344 29.878906 6.777344 30.136719 C 6.777344 30.226562 6.78125 30.296875 6.785156 30.34375 C 6.785156 30.351562 6.785156 30.359375 6.785156 30.367188 C 6.785156 30.371094 6.78125 30.382812 6.777344 30.390625 C 6.777344 30.683594 6.808594 30.976562 6.867188 31.269531 C 6.925781 31.566406 7.039062 31.816406 7.207031 32.023438 C 7.375 32.226562 7.609375 32.328125 7.910156 32.328125 "/>
<path style=" stroke:none;fill-rule:nonzero;fill:rgb(0%,0%,1.197815%);fill-opacity:1;" d="M 5.804688 7.253906 C 5.804688 6.847656 5.9375 6.488281 6.203125 6.175781 C 6.46875 5.863281 6.8125 5.601562 7.230469 5.394531 L 6.855469 5.15625 C 6.625 5.003906 6.4375 4.800781 6.292969 4.546875 C 6.144531 4.296875 6.074219 4.03125 6.074219 3.753906 C 6.074219 3.429688 6.160156 3.136719 6.328125 2.878906 C 6.5 2.617188 6.726562 2.414062 7.007812 2.265625 C 7.289062 2.117188 7.589844 2.042969 7.910156 2.042969 C 8.210938 2.042969 8.5 2.101562 8.777344 2.226562 C 9.054688 2.347656 9.28125 2.523438 9.460938 2.75 C 9.640625 2.976562 9.730469 3.246094 9.730469 3.558594 C 9.730469 3.785156 9.679688 3.996094 9.574219 4.191406 C 9.46875 4.390625 9.320312 4.5625 9.132812 4.71875 C 8.945312 4.871094 8.746094 5.003906 8.535156 5.113281 L 9.117188 5.484375 C 9.382812 5.660156 9.597656 5.890625 9.761719 6.171875 C 9.925781 6.453125 10.007812 6.753906 10.007812 7.066406 C 10.007812 7.433594 9.910156 7.769531 9.710938 8.070312 C 9.515625 8.371094 9.253906 8.601562 8.933594 8.765625 C 8.609375 8.929688 8.269531 9.011719 7.910156 9.011719 C 7.5625 9.011719 7.222656 8.941406 6.898438 8.796875 C 6.570312 8.65625 6.308594 8.449219 6.105469 8.183594 C 5.90625 7.914062 5.804688 7.605469 5.804688 7.253906 Z M 6.351562 7.253906 C 6.351562 7.519531 6.421875 7.761719 6.570312 7.984375 C 6.714844 8.203125 6.910156 8.378906 7.152344 8.503906 C 7.394531 8.628906 7.648438 8.691406 7.910156 8.691406 C 8.300781 8.691406 8.65625 8.574219 8.976562 8.347656 C 9.296875 8.117188 9.457031 7.8125 9.457031 7.4375 C 9.457031 7.308594 9.429688 7.179688 9.378906 7.050781 C 9.328125 6.925781 9.257812 6.808594 9.167969 6.703125 C 9.078125 6.601562 8.976562 6.515625 8.863281 6.449219 L 7.503906 5.570312 C 7.292969 5.679688 7.101562 5.820312 6.925781 5.992188 C 6.75 6.164062 6.609375 6.359375 6.503906 6.574219 C 6.402344 6.789062 6.351562 7.015625 6.351562 7.253906 Z M 7.046875 4.15625 L 8.273438 4.949219 C 8.558594 4.785156 8.792969 4.585938 8.972656 4.351562 C 9.15625 4.117188 9.246094 3.851562 9.246094 3.558594 C 9.246094 3.332031 9.183594 3.125 9.054688 2.9375 C 8.929688 2.746094 8.761719 2.597656 8.554688 2.492188 C 8.351562 2.386719 8.132812 2.335938 7.898438 2.335938 C 7.695312 2.335938 7.488281 2.375 7.28125 2.453125 C 7.074219 2.53125 6.902344 2.648438 6.769531 2.808594 C 6.632812 2.964844 6.566406 3.148438 6.566406 3.359375 C 6.566406 3.675781 6.726562 3.941406 7.046875 4.15625 "/>
<path style="fill:none;stroke-width:15.0082;stroke-linecap:butt;stroke-linejoin:round;stroke:rgb(0%,44.700623%,74.021912%);stroke-opacity:1;stroke-miterlimit:10;" d="M 143.798697 -860.486641 L 172.394363 -861.697494 L 200.950964 -865.251932 L 229.54663 -871.149957 L 258.142296 -879.235329 L 286.698896 -889.351808 L 315.255497 -901.265036 L 343.851163 -914.779715 L 372.407764 -929.544307 L 401.00343 -945.246333 L 429.599096 -961.573315 L 458.155696 -978.173715 L 486.751362 -994.617877 L 515.307963 -1010.554261 L 543.864564 -1025.553211 L 572.46023 -1039.263189 L 601.055896 -1051.293597 L 629.612497 -1061.253837 L 658.208162 -1068.831432 L 686.764763 -1073.674843 L 715.360429 -1075.549712 L 743.91703 -1074.14356 L 772.512696 -1069.339209 L 801.069297 -1060.941359 L 829.664963 -1048.832832 L 858.221563 -1033.013627 L 886.817229 -1013.444684 L 915.37383 -990.243183 L 943.969496 -963.487243 L 972.526097 -933.411224 L 1001.121763 -900.249483 L 1029.678363 -864.275438 L 1058.274029 -825.879688 L 1086.83063 -785.413771 L 1115.426296 -743.346403 L 1143.982897 -700.185362 L 1172.578563 -656.399365 L 1201.135164 -612.613367 L 1229.691764 -569.335147 L 1258.28743 -527.189659 L 1286.883096 -486.762802 L 1315.439697 -448.64047 L 1344.035363 -413.447621 L 1372.591964 -381.692032 L 1401.18763 -353.920538 L 1429.74423 -330.719037 L 1458.300831 -312.517186 L 1486.896497 -299.744643 L 1515.492163 -292.752945 L 1544.048764 -291.85457 L 1572.64443 -297.361997 L 1601.20103 -309.392405 L 1629.796696 -328.062973 L 1658.353297 -353.412761 L 1686.948963 -385.36365 L 1715.505564 -423.759399 L 1744.10123 -468.443771 L 1772.657831 -519.065228 L 1801.253496 -575.233171 L 1829.810097 -636.517944 L 1858.405763 -702.372709 L 1886.962364 -772.17251 L 1915.55803 -845.253332 L 1944.114631 -920.912099 L 1972.671231 -998.367614 L 2001.266897 -1076.760564 L 2029.862563 -1155.270694 L 2058.419164 -1233.038687 L 2087.01483 -1309.088051 L 2115.571431 -1382.598531 L 2144.167097 -1452.632691 L 2172.723697 -1518.370277 L 2201.319363 -1578.873854 L 2229.875964 -1633.401287 L 2258.47163 -1681.132321 L 2287.028231 -1721.402939 L 2315.623897 -1753.588186 L 2344.180498 -1777.063106 L 2372.776164 -1791.39804 L 2401.332764 -1796.163331 L 2429.92843 -1791.085562 L 2458.485031 -1775.969432 L 2487.080697 -1750.775883 L 2515.637298 -1715.504915 L 2544.232964 -1670.273706 L 2572.789564 -1615.394735 L 2601.38523 -1551.18048 L 2629.941831 -1478.177778 L 2658.537497 -1396.894405 L 2687.094098 -1308.111557 L 2715.689764 -1212.57137 L 2744.246365 -1111.172218 L 2772.84203 -1004.851535 L 2801.398631 -894.702996 L 2829.994297 -781.781213 L 2858.550898 -667.297039 L 2887.146564 -552.383208 L 2915.703165 -438.289632 L 2944.298831 -326.227164 L 2972.855431 -217.484776 " transform="matrix(0.0999933,0,0,0.100007,0,187)"/>
</g>
</svg>
